<svg version="1.2" xmlns="http://www.w3.org/2000/svg" viewBox="0 0 17 42" width="17" height="42"><defs><clipPath clipPathUnits="userSpaceOnUse" id="cp1"><path d="m-28-797h430v932h-430z"/></clipPath><clipPath clipPathUnits="userSpaceOnUse" id="cp2"><path d="m9.5 23c-6.36 0-11.5-5.14-11.5-11.5 0-6.36 5.14-11.5 11.5-11.5 6.36 0 11.5 5.14 11.5 11.5 0 6.36-5.14 11.5-11.5 11.5z"/></clipPath></defs><style>.a{fill:#fff}</style><g clip-path="url(#cp1)"><g clip-path="url(#cp2)"><path fill-rule="evenodd" class="a" d="m15.8 15.5c-0.1 1.5-0.3 3.1-0.2 4.7q0 0.7 0.1 1.4c0 0.3-0.1 0.4-0.4 0.5-0.1 0.1-0.2 0.2-0.2 0.3-0.4 1.1-0.6 2.3-0.9 3.4q-0.3 1.3-0.5 2.5-0.2 1.3 0.1 2.6c0.1 0.7 0.3 1.4 0.5 2 0.3 0.7 0.3 1.5 0.2 2.2q-0.3 2-0.6 3.9-0.1 0.8-0.2 1.5 0 0.3 0 0.5h-2.8v-1.3q0-0.2 0-0.4c0.1-0.2 0-0.4 0.1-0.6q0.1-0.2 0.1-0.3-0.2-1.4-0.2-2.7c0-0.8-0.1-1.6-0.3-2.4-0.2-1-0.7-1.9-0.8-3-0.2-0.8-0.5-1.5-0.8-2.2-0.1-0.1-0.1-0.2-0.2-0.2-0.2 0-0.2-0.1-0.2-0.3 0-0.1 0-0.2 0-0.2-0.1 0-0.1 0.1-0.2 0.2-0.4 1-0.8 2-1.4 2.9-0.1 0.2-0.2 0.5-0.1 0.7 0.1 0.1 0.1 0.3 0 0.4q-0.1 0.2-0.1 0.3c-0.4 1.1-0.7 2.2-0.9 3.3-0.2 1.1-0.4 2.3-0.7 3.4-0.2 0.7-0.2 1.4-0.2 2.1q0 0.2 0.1 0.3h-2.8c0-0.5-0.1-1-0.1-1.5q-0.1-1.5-0.2-3c-0.1-1.2 0.2-2.4 0.6-3.5 0.2-0.7 0.5-1.4 0.8-2 0.4-0.7 0.5-1.5 0.5-2.2-0.1-0.9 0-1.8 0.3-2.7q0.4-1 0-2.1-0.3-0.7-0.4-1.4-0.2-1 0.4-1.8 0.1-0.2 0.3-0.5 0.6-0.7 0.7-1.6 0.1-0.8 0-1.5c-0.1-0.3-0.2-0.5-0.4-0.7-0.3-0.2-0.5-0.5-0.7-0.8-0.4-0.5-0.8-1-1.2-1.4-0.9-0.9-1.1-1.9-0.9-3 0-0.4 0-0.9 0.1-1.3-0.2 0.4-0.4 0.8-0.5 1.2-0.1 0.1 0 0.3-0.2 0.3-0.2 0-0.1-0.2-0.1-0.3q0-0.3 0-0.6c-0.2 0-0.4-0.3-0.4-0.6q0.1-0.3 0.2-0.5c0-0.2 0.1-0.4 0-0.7 0 0 0.1-0.1 0.1-0.2q0.2-0.7 0.4-1.4c0.1-0.1 0.1-0.2 0.1-0.2-0.2-0.6 0-1.1 0.1-1.7q0-0.4 0-0.9 0.1-0.3 0.3-0.6 0.1-0.2 0.3-0.5c0 0 0.1-0.1 0.1-0.1 0.2 0.1 0.4-0.1 0.6 0.1q0.3 0.2 0.5-0.1 0.1-0.1 0.2-0.3 0.7-0.7 1.7-0.4 0.4 0.1 0.8 0.2c0.1 0.1 0.2 0 0.3-0.1 0.3-0.4 0.6-0.7 0.8-1.1 0.6-0.7 1.2-0.9 2-0.7 0.6 0.1 1.1 0.2 1.6 0.6q1 0.6 1.1 1.7 0.1 0.6 0.1 1.2 0 0.3 0.1 0.7 0 0.2 0.2 0.1 0.3-0.2 0.5-0.3 0.5-0.2 0.6 0.2 0.1 0.2 0.1 0.3 0 0.4 0.3 0.7 0.4 0.2 0.6 0.6 0.1 0.4 0.5 0.4 0.1 0.1 0.3 0.1 0.4 0.2 0.5 0.6c0.1 0.7 0.2 1.3 0.2 2 0.1 1.9-0.1 3.9-0.3 5.8zm-14-6.7c-0.2 0.5-0.5 1-0.4 1.6 0-0.6 0.3-1.1 0.4-1.6zm1-4.5q0-0.1 0-0.1 0 0 0 0 0 0.1 0 0.1 0 0 0 0zm0.3 1.7q0.1 0.4 0.1 0.8c0.2-0.3 0.1-0.6-0.1-0.8zm2.6 2.5c-0.2-0.1-0.3-0.2-0.4-0.1q-0.1 0-0.1 0.1c0 0 0.1 0 0.1 0 0.1 0 0.2 0 0.4 0zm2.9 1.8c-0.1-0.1-0.1 0-0.2 0-0.4 0.1-0.8 0.2-1.3 0.4-0.1 0-0.1 0.1 0 0.1 0.3 0.4 0.8 0.7 1.1 1-0.1-0.5 0.1-0.8 0.3-1.2q0-0.1 0.1-0.2c0 0 0-0.1 0-0.1zm1.2-3q-0.2 0.1-0.4 0.1c-0.4 0.1-0.5 0.1-0.6-0.3 0-0.1 0-0.2-0.1-0.2-0.1 0-0.1-0.1-0.1-0.2 0-0.1-0.3-0.3-0.5-0.3-0.2 0.1-0.3 0-0.4-0.2-0.1 0.1-0.1 0.2-0.1 0.3q0.1 0.2 0.2 0.5c0.1 0.4 0.1 0.5-0.4 0.5-0.1 0-0.2 0-0.2 0.1q0 0.2-0.1 0.4c-0.1 0.1-0.1 0.2-0.2 0.4 0.3-0.1 0.5-0.2 0.7-0.1 0.6 0.1 1.1-0.2 1.6-0.2q0.1-0.1 0.1-0.1c0.1-0.2 0.3-0.5 0.5-0.7z"/></g></g></svg>